<svg width="106" height="27" viewBox="0 0 106 27" fill="none" xmlns="http://www.w3.org/2000/svg">
<path d="M18.8601 6.64001C20.1185 7.8988 20.9754 9.50246 21.3224 11.2482C21.6694 12.994 21.491 14.8034 20.8098 16.4478C20.1285 18.0921 18.9749 19.4976 17.4949 20.4864C16.015 21.4752 14.275 22.0029 12.4951 22.0029C10.7152 22.0029 8.97527 21.4752 7.49529 20.4864C6.01532 19.4976 4.86176 18.0921 4.18049 16.4478C3.49921 14.8034 3.32081 12.994 3.66784 11.2482C4.01487 9.50246 4.87174 7.8988 6.13012 6.64001" stroke="#319795" stroke-width="2" stroke-linecap="round" stroke-linejoin="round"/>
<path d="M12.5 2V12" stroke="#319795" stroke-width="2" stroke-linecap="round" stroke-linejoin="round"/>
<path d="M55.5 21H51.5C50.9696 21 50.4609 20.7893 50.0858 20.4142C49.7107 20.0391 49.5 19.5304 49.5 19V5C49.5 4.46957 49.7107 3.96086 50.0858 3.58579C50.4609 3.21071 50.9696 3 51.5 3H55.5" stroke="#319795" stroke-width="2" stroke-linecap="round" stroke-linejoin="round"/>
<path d="M62.5 17L67.5 12L62.5 7" stroke="#319795" stroke-width="2" stroke-linecap="round" stroke-linejoin="round"/>
<path d="M67.5 12H55.5" stroke="#319795" stroke-width="2" stroke-linecap="round" stroke-linejoin="round"/>
<g clip-path="url(#clip0_18_184)">
<path d="M96.5499 8C97.5267 8.19057 98.4243 8.66826 99.128 9.37194C99.8317 10.0756 100.309 10.9733 100.5 11.95M96.5499 4C98.5792 4.22544 100.472 5.13417 101.916 6.57701C103.361 8.01984 104.272 9.91101 104.5 11.94M103.5 19.92V22.92C103.501 23.1985 103.444 23.4742 103.332 23.7293C103.221 23.9845 103.057 24.2136 102.852 24.4019C102.647 24.5901 102.405 24.7335 102.141 24.8227C101.877 24.9119 101.597 24.9451 101.32 24.92C98.2428 24.5856 95.2869 23.5341 92.6899 21.85C90.2738 20.3147 88.2253 18.2662 86.6899 15.85C84.9999 13.2412 83.9482 10.271 83.6199 7.18C83.5949 6.90347 83.6278 6.62476 83.7164 6.36162C83.8051 6.09849 83.9475 5.85669 84.1347 5.65162C84.3219 5.44655 84.5497 5.28271 84.8037 5.17052C85.0577 5.05833 85.3323 5.00026 85.6099 5H88.6099C89.0952 4.99522 89.5657 5.16708 89.9337 5.48353C90.3017 5.79999 90.542 6.23945 90.6099 6.72C90.7366 7.68007 90.9714 8.62273 91.3099 9.53C91.4445 9.88792 91.4736 10.2769 91.3938 10.6509C91.3141 11.0248 91.1288 11.3681 90.8599 11.64L89.5899 12.91C91.0135 15.4135 93.0864 17.4864 95.5899 18.91L96.8599 17.64C97.1318 17.3711 97.4751 17.1858 97.8491 17.1061C98.223 17.0263 98.612 17.0555 98.9699 17.19C99.8772 17.5286 100.82 17.7634 101.78 17.89C102.266 17.9585 102.709 18.2032 103.026 18.5775C103.344 18.9518 103.512 19.4296 103.5 19.92Z" stroke="#319795" stroke-width="2" stroke-linecap="round" stroke-linejoin="round"/>
</g>
<defs>
<clipPath id="clip0_18_184">
<rect width="24" height="24" fill="white" transform="translate(81.5 3)"/>
</clipPath>
</defs>
</svg>
