<svg width="117" height="27" viewBox="0 0 117 27" fill="none" xmlns="http://www.w3.org/2000/svg">
<path d="M21.5 18C21.5 18.5304 21.2893 19.0391 20.9142 19.4142C20.5391 19.7893 20.0304 20 19.5 20H7.5L3.5 24V8C3.5 7.46957 3.71071 6.96086 4.08579 6.58579C4.46086 6.21071 4.96957 6 5.5 6H19.5C20.0304 6 20.5391 6.21071 20.9142 6.58579C21.2893 6.96086 21.5 7.46957 21.5 8V18Z" stroke="#319795" stroke-width="2" stroke-linecap="round" stroke-linejoin="round"/>
<path d="M53.5 11L57.5 2C58.2956 2 59.0587 2.31607 59.6213 2.87868C60.1839 3.44129 60.5 4.20435 60.5 5V9H66.16C66.4499 8.99672 66.7371 9.0565 67.0016 9.17522C67.2661 9.29393 67.5016 9.46873 67.6919 9.68751C67.8821 9.90629 68.0225 10.1638 68.1033 10.4423C68.1842 10.7207 68.2035 11.0134 68.16 11.3L66.78 20.3C66.7077 20.7769 66.4654 21.2116 66.0979 21.524C65.7304 21.8364 65.2623 22.0055 64.78 22H53.5M53.5 11V22M53.5 11H50.5C49.9696 11 49.4609 11.2107 49.0858 11.5858C48.7107 11.9609 48.5 12.4696 48.5 13V20C48.5 20.5304 48.7107 21.0391 49.0858 21.4142C49.4609 21.7893 49.9696 22 50.5 22H53.5" stroke="#319795" stroke-width="2" stroke-linecap="round" stroke-linejoin="round"/>
<path d="M109.5 15L105.5 24C104.704 24 103.941 23.6839 103.379 23.1213C102.816 22.5587 102.5 21.7956 102.5 21V17H96.84C96.5501 17.0033 96.263 16.9435 95.9985 16.8248C95.734 16.7061 95.4984 16.5313 95.3082 16.3125C95.1179 16.0937 94.9775 15.8362 94.8967 15.5577C94.8159 15.2793 94.7965 14.9866 94.84 14.7L96.22 5.7C96.2924 5.22309 96.5346 4.78839 96.9021 4.47599C97.2697 4.16359 97.7377 3.99454 98.22 4H109.5M109.5 15V4M109.5 15H112.17C112.736 15.01 113.286 14.8119 113.715 14.4432C114.145 14.0745 114.424 13.5609 114.5 13V6C114.424 5.43905 114.145 4.9255 113.715 4.55681C113.286 4.18813 112.736 3.98999 112.17 4H109.5" stroke="#319795" stroke-width="2" stroke-linecap="round" stroke-linejoin="round"/>
</svg>
