<svg width="25" height="24" viewBox="0 0 25 24" fill="none" xmlns="http://www.w3.org/2000/svg">
<path d="M19.3333 11H5.33325C4.22868 11 3.33325 11.8954 3.33325 13V20C3.33325 21.1046 4.22868 22 5.33325 22H19.3333C20.4378 22 21.3333 21.1046 21.3333 20V13C21.3333 11.8954 20.4378 11 19.3333 11Z" stroke="black" stroke-width="2" stroke-linecap="round" stroke-linejoin="round"/>
<path d="M7.33325 11V7C7.33325 5.67392 7.86004 4.40215 8.79772 3.46447C9.7354 2.52678 11.0072 2 12.3333 2C13.6593 2 14.9311 2.52678 15.8688 3.46447C16.8065 4.40215 17.3333 5.67392 17.3333 7V11" stroke="black" stroke-width="2" stroke-linecap="round" stroke-linejoin="round"/>
</svg>
