<svg width="25" height="24" viewBox="0 0 25 24" fill="none" xmlns="http://www.w3.org/2000/svg">
<path d="M19.6666 11H5.66663C4.56206 11 3.66663 11.8954 3.66663 13V20C3.66663 21.1046 4.56206 22 5.66663 22H19.6666C20.7712 22 21.6666 21.1046 21.6666 20V13C21.6666 11.8954 20.7712 11 19.6666 11Z" stroke="black" stroke-width="2" stroke-linecap="round" stroke-linejoin="round"/>
<path d="M7.66663 11V7C7.66663 5.67392 8.19341 4.40215 9.13109 3.46447C10.0688 2.52678 11.3405 2 12.6666 2C13.9927 2 15.2645 2.52678 16.2022 3.46447C17.1398 4.40215 17.6666 5.67392 17.6666 7V11" stroke="black" stroke-width="2" stroke-linecap="round" stroke-linejoin="round"/>
</svg>
