<svg width="25" height="24" viewBox="0 0 25 24" fill="none" xmlns="http://www.w3.org/2000/svg">
<path d="M19.6667 11H5.66675C4.56218 11 3.66675 11.8954 3.66675 13V20C3.66675 21.1046 4.56218 22 5.66675 22H19.6667C20.7713 22 21.6667 21.1046 21.6667 20V13C21.6667 11.8954 20.7713 11 19.6667 11Z" stroke="black" stroke-width="2" stroke-linecap="round" stroke-linejoin="round"/>
<path d="M7.66675 11V7C7.66675 5.67392 8.19353 4.40215 9.13121 3.46447C10.0689 2.52678 11.3407 2 12.6667 2C13.9928 2 15.2646 2.52678 16.2023 3.46447C17.14 4.40215 17.6667 5.67392 17.6667 7V11" stroke="black" stroke-width="2" stroke-linecap="round" stroke-linejoin="round"/>
</svg>
