<svg width="25" height="24" viewBox="0 0 25 24" fill="none" xmlns="http://www.w3.org/2000/svg">
<path d="M19.3334 11H5.33337C4.2288 11 3.33337 11.8954 3.33337 13V20C3.33337 21.1046 4.2288 22 5.33337 22H19.3334C20.4379 22 21.3334 21.1046 21.3334 20V13C21.3334 11.8954 20.4379 11 19.3334 11Z" stroke="black" stroke-width="2" stroke-linecap="round" stroke-linejoin="round"/>
<path d="M7.33337 11V7C7.33337 5.67392 7.86016 4.40215 8.79784 3.46447C9.73552 2.52678 11.0073 2 12.3334 2C13.6595 2 14.9312 2.52678 15.8689 3.46447C16.8066 4.40215 17.3334 5.67392 17.3334 7V11" stroke="black" stroke-width="2" stroke-linecap="round" stroke-linejoin="round"/>
</svg>
