<svg width="37" height="33" viewBox="0 0 37 33" fill="none" xmlns="http://www.w3.org/2000/svg">
<path fill-rule="evenodd" clip-rule="evenodd" d="M30.4838 0.704681C33.4138 0.0756714 34.8788 -0.238833 35.6993 0.21371C36.381 0.58965 36.8536 1.26155 36.9809 2.03566C37.1342 2.96752 36.3588 4.26236 34.808 6.85204L22.3448 27.6645C20.3966 30.9179 19.4225 32.5445 18.5481 32.8431C17.7462 33.117 17.0887 33.0354 16.3762 32.5738C15.5991 32.0704 14.9781 30.0416 13.7359 25.9839C13.6096 25.5713 13.4766 25.1694 13.3363 24.7776C12.8089 23.3036 12.5451 22.5667 12.5702 22.0546C12.5942 21.5643 12.6915 21.2496 12.9481 20.8327C13.216 20.3974 13.7464 20.0163 14.8073 19.2543L20.996 14.8088C21.934 14.1349 22.1539 12.8203 21.4871 11.8724C20.8203 10.9245 19.5193 10.7023 18.5813 11.3761L12.3207 15.8733C11.2724 16.6263 10.7483 17.0028 10.2554 17.1157C9.78661 17.2232 9.4556 17.2133 8.99386 17.0781C8.50843 16.9359 7.91695 16.4556 6.73401 15.4949C6.26313 15.1124 5.76784 14.7367 5.24679 14.3654C1.96381 12.026 0.322327 10.8563 0.0920831 9.94365C-0.11512 9.12228 0.0250956 8.43188 0.535691 7.75938C1.10306 7.0121 2.89562 6.62727 6.48074 5.85763L30.4838 0.704681ZM24.9503 9.30631C25.6778 10.3404 27.097 10.5828 28.1203 9.84771C29.1436 9.11264 29.3835 7.67846 28.6561 6.64437C27.9287 5.61029 26.5094 5.3679 25.4861 6.10297C24.4628 6.83804 24.2229 8.27222 24.9503 9.30631Z" fill="#1841DB"/>
</svg>
